#!OML:ASF I:\Actors\actors\Patient Classification 2\Patient 1\Session 1\actor1.ASF
:FULLY-SPECIFIED
:DEGREES
205
root -0.544928 18.8356 5.3471 22.5334 -0.282989 -1.17446
lowerback 25.5097 0.191612 1.1761
upperback 4.0096 0.616686 0.544044
thorax -9.7331 0.255384 -0.274361
lowerneck -8.27635 -2.47956 -1.17209
upperneck -1.22188 -3.26113 3.23928
head 1.08966 -1.57667 1.09609
rclavicle 3.97569e-016 -1.2921e-015
rhumerus 1.61729 29.6146 -71.674
rradius 41.2559
rwrist 11.1738
rhand -28.628 -35.9283
rfingers 7.12502
rthumb -1.99244 -65.8988
lclavicle 3.97569e-016 -1.2921e-015
lhumerus 7.89627 -21.0159 78.2394
lradius 37.4983
lwrist -19.3387
lhand -23.2835 -47.6156
lfingers 7.12502
lthumb 3.16929 -17.6594
rfemur -22.883 1.32676 13.6842
rtibia 9.72536
rfoot -19.0937 -15.719
rtoes -5.55998
lfemur -34.7673 0.443518 -12.5724
ltibia 28.5696
lfoot -16.7448 8.15149
ltoes -56.0404
206
root -0.545564 18.8339 5.33575 22.452 -0.585446 -0.905152
lowerback 25.6921 0.306265 0.760017
upperback 4.01722 0.642926 0.441859
thorax -9.82265 0.279211 -0.158558
lowerneck -8.20494 -2.63574 -1.28128
upperneck -1.16306 -3.46396 3.36045
head 1.10627 -1.67614 1.14629
rclavicle -2.98177e-016 2.28602e-015
rhumerus 1.61572 29.4904 -71.6903
rradius 41.3007
rwrist 11.0536
rhand -28.45 -35.8754
rfingers 7.12502
rthumb -1.82054 -65.8474
lclavicle -2.98177e-016 2.28602e-015
lhumerus 7.86176 -21.363 78.1735
lradius 37.5718
lwrist -18.3378
lhand -23.6916 -47.8513
lfingers 7.12502
lthumb 2.77519 -17.8896
rfemur -23.0009 1.49693 13.2882
rtibia 9.95759
rfoot -19.1589 -15.6708
rtoes -5.58362
lfemur -34.6507 0.436257 -12.9082
ltibia 28.529
lfoot -16.7688 8.30943
ltoes -56.0185
207
root -0.54671 18.8332 5.32861 22.4306 -0.720441 -0.808216
lowerback 25.7901 0.359051 0.584765
upperback 4.00353 0.659309 0.397633
thorax -9.89044 0.29161 -0.113138
lowerneck -8.08366 -2.83208 -1.42261
upperneck -1.18886 -3.71626 3.48893
head 1.08992 -1.80153 1.20343
rclavicle -1.39149e-015 1.98785e-015
rhumerus 1.56994 29.4384 -71.7059
rradius 41.2986
rwrist 11.3303
rhand -28.5807 -35.9319
rfingers 7.12502
rthumb -1.94676 -65.9028
lclavicle -1.39149e-015 1.98785e-015
lhumerus 7.82586 -21.5294 78.1478
lradius 37.6079
lwrist -17.8276
lhand -23.8827 -48.0491
lfingers 7.12502
lthumb 2.59068 -18.0851
rfemur -23.1482 1.58224 13.1374
rtibia 10.1949
rfoot -19.2641 -15.5696
rtoes -5.33094
lfemur -34.6137 0.440639 -13.0296
ltibia 28.485
lfoot -16.7355 8.41467
ltoes -56.1101
208
root -0.548721 18.834 5.3269 22.463 -0.714962 -0.837463
lowerback 25.8062 0.362563 0.600366
upperback 3.97775 0.668469 0.398402
thorax -9.92771 0.295135 -0.12452
lowerneck -7.98213 -3.05615 -1.58734
upperneck -1.2115 -4.00431 3.64499
head 1.08111 -1.94419 1.27208
rclavicle -3.18055e-015 -3.18055e-015
rhumerus 1.52916 29.402 -71.7015
rradius 41.2211
rwrist 11.8394
rhand -29.2854 -36.3385
rfingers 7.12502
rthumb -2.6273 -66.302
lclavicle -3.18055e-015 -3.18055e-015
lhumerus 7.82123 -21.5782 78.1312
lradius 37.5889
lwrist -17.7827
lhand -23.9628 -48.0474
lfingers 7.12502
lthumb 2.51325 -18.0824
rfemur -23.2788 1.64772 13.151
rtibia 10.3683
rfoot -19.3942 -15.5403
rtoes -5.15024
lfemur -34.6433 0.447415 -12.9858
ltibia 28.4544
lfoot -16.7072 8.42573
ltoes -56.1385
209
root -0.550883 18.8354 5.32527 22.4862 -0.716552 -0.819147
lowerback 25.8129 0.366934 0.577545
upperback 3.97155 0.665778 0.378219
thorax -9.9382 0.29427 -0.13307
lowerneck -7.94674 -3.33344 -1.80519
upperneck -1.2027 -4.36018 3.84205
head 1.09946 -2.11923 1.35969
rclavicle 1.30204e-014 6.16232e-015
rhumerus 1.56683 29.3784 -71.6608
rradius 41.1291
rwrist 12.1155
rhand -30.28 -37.2134
rfingers 7.12502
rthumb -3.58781 -67.163
lclavicle 1.30204e-014 6.16232e-015
lhumerus 7.84414 -21.6211 78.091
lradius 37.5985
lwrist -17.7641
lhand -23.9881 -47.9894
lfingers 7.12502
lthumb 2.48885 -18.0242
rfemur -23.3341 1.67962 13.1241
rtibia 10.4143
rfoot -19.433 -15.5649
rtoes -5.13671
lfemur -34.6717 0.448492 -12.994
ltibia 28.4506
lfoot -16.7143 8.40116
ltoes -56.0497
210
root -0.552334 18.8365 5.32336 22.4878 -0.706787 -0.791428
lowerback 25.8272 0.361942 0.547579
upperback 3.97286 0.649695 0.362694
thorax -9.94438 0.287568 -0.127859
lowerneck -7.88596 -3.64879 -2.06173
upperneck -1.2064 -4.76366 4.02663
head 1.1133 -2.31871 1.44874
rclavicle -4.77083e-015 -1.88845e-015
rhumerus 1.57548 29.4012 -71.6168
rradius 41.122
rwrist 12.0475
rhand -30.3263 -37.4587
rfingers 7.12502
rthumb -3.63258 -67.4075
lclavicle -4.77083e-015 -1.88845e-015
lhumerus 7.85343 -21.578 78.0812
lradius 37.6197
lwrist -17.785
lhand -23.8635 -48.0218
lfingers 7.12502
lthumb 2.60923 -18.058
rfemur -23.3354 1.66846 13.1032
rtibia 10.4026
rfoot -19.4047 -15.599
rtoes -5.18883
lfemur -34.6864 0.435599 -13.0132
ltibia 28.4602
lfoot -16.71 8.38729
ltoes -55.9703
211
root -0.553591 18.8366 5.32132 22.4945 -0.697107 -0.796749
lowerback 25.8463 0.364185 0.537526
upperback 3.96956 0.651272 0.373602
thorax -9.9583 0.288796 -0.110574
lowerneck -7.81252 -3.95678 -2.31927
upperneck -1.24657 -5.15651 4.19511
head 1.11432 -2.51367 1.53374
rclavicle -6.95746e-016 2.68359e-015
rhumerus 1.54101 29.4533 -71.554
rradius 41.1832
rwrist 11.8088
rhand -28.8902 -36.4027
rfingers 7.12502
rthumb -2.24564 -66.3707
lclavicle -6.95746e-016 2.68359e-015
lhumerus 7.8672 -21.5335 78.0998
lradius 37.6183
lwrist -17.8269
lhand -23.7877 -48.0364
lfingers 7.12502
lthumb 2.68237 -18.0735
rfemur -23.3545 1.68257 13.1095
rtibia 10.4114
rfoot -19.4144 -15.6162
rtoes -5.20833
lfemur -34.706 0.425616 -12.9989
ltibia 28.463
lfoot -16.6957 8.41646
ltoes -55.9681
212
root -0.554789 18.8372 5.31933 22.5154 -0.685304 -0.81783
lowerback 25.8562 0.362637 0.545403
upperback 3.96739 0.653126 0.387929
thorax -9.96599 0.289606 -0.0998148
lowerneck -7.71265 -4.24308 -2.53293
upperneck -1.37292 -5.52251 4.35208
head 1.08206 -2.69664 1.6097
rclavicle -2.98177e-016 1.78906e-015
rhumerus 1.55171 29.5333 -71.4726
rradius 41.2227
rwrist 11.5269
rhand -30.1967 -38.0349
rfingers 7.12502
rthumb -3.50741 -67.9858
lclavicle -2.98177e-016 1.78906e-015
lhumerus 7.88657 -21.4889 78.1124
lradius 37.6014
lwrist -17.9434
lhand -23.8072 -47.958
lfingers 7.12502
lthumb 2.66352 -17.9949
rfemur -23.392 1.70595 13.1317
rtibia 10.4364
rfoot -19.4438 -15.6218
rtoes -5.22847
lfemur -34.7298 0.411376 -12.963
ltibia 28.4522
lfoot -16.6932 8.44822
ltoes -56.0031
213
root -0.555445 18.8378 5.31853 22.5227 -0.688336 -0.787879
lowerback 25.8526 0.357897 0.505158
upperback 3.97342 0.635291 0.380668
thorax -9.95777 0.282668 -0.078735
lowerneck -7.57577 -4.51165 -2.71839
upperneck -1.50327 -5.86801 4.50661
head 1.04173 -2.86995 1.68186
rclavicle 4.17448e-015 -7.95139e-016
rhumerus 1.60221 29.5432 -71.4129
rradius 41.2194
rwrist 11.2627
rhand -29.7201 -38.007
rfingers 7.12502
rthumb -3.04713 -67.965
lclavicle 4.17448e-015 -7.95139e-016
lhumerus 7.90647 -21.4489 78.0968
lradius 37.5794
lwrist -18.0267
lhand -23.7843 -47.8612
lfingers 7.12502
lthumb 2.68568 -17.8983
rfemur -23.4027 1.67669 13.1122
rtibia 10.445
rfoot -19.4061 -15.6227
rtoes -5.39498
lfemur -34.7267 0.387545 -12.9866
ltibia 28.4334
lfoot -16.7017 8.45486
ltoes -55.9929
214
root -0.5557 18.8375 5.31901 22.5198 -0.715731 -0.715926
lowerback 25.8374 0.363379 0.417143
upperback 3.98947 0.616417 0.363826
thorax -9.93253 0.27681 -0.0403978
lowerneck -7.50592 -4.78404 -2.88992
upperneck -1.55453 -6.2208 4.6432
head 1.0385 -3.04582 1.74382
rclavicle -3.27995e-015 -1.2921e-015
rhumerus 1.65893 29.4535 -71.3639
rradius 41.2229
rwrist 11.0802
rhand -30.9097 -37.986
rfingers 7.12502
rthumb -4.19598 -67.9245
lclavicle -3.27995e-015 -1.2921e-015
lhumerus 7.9189 -21.4084 78.0876
lradius 37.5907
lwrist -18.0562
lhand -23.7715 -47.7553
lfingers 7.12502
lthumb 2.698 -17.7927
rfemur -23.3956 1.64223 13.0401
rtibia 10.4366
rfoot -19.3738 -15.6234
rtoes -5.55639
lfemur -34.7052 0.338578 -13.056
ltibia 28.4136
lfoot -16.7187 8.48197
ltoes -55.9417
215
root -0.556504 18.8376 5.31879 22.5188 -0.711574 -0.702783
lowerback 25.8449 0.361737 0.392873
upperback 4.00652 0.608767 0.373514
thorax -9.91754 0.274345 -0.0130523
lowerneck -7.46065 -5.08006 -3.09654
upperneck -1.63206 -6.60167 4.79598
head 1.0355 -3.23546 1.81573
rclavicle 2.18663e-015 1.78906e-015
rhumerus 1.70258 29.4129 -71.3037
rradius 41.2433
rwrist 11.0064
rhand -30.7477 -37.7029
rfingers 7.12502
rthumb -4.03954 -67.6444
lclavicle 2.18663e-015 1.78906e-015
lhumerus 7.92759 -21.3301 78.115
lradius 37.6266
lwrist -18.1241
lhand -23.7437 -47.6841
lfingers 7.12502
lthumb 2.72487 -17.7218
rfemur -23.3964 1.61273 13.0375
rtibia 10.4456
rfoot -19.3914 -15.5886
rtoes -5.39382
lfemur -34.6928 0.273519 -13.0458
ltibia 28.392
lfoot -16.7268 8.53865
ltoes -55.9523
216
root -0.558133 18.8376 5.31697 22.5098 -0.67654 -0.746664
lowerback 25.8851 0.351165 0.43129
upperback 4.0242 0.608679 0.399943
thorax -9.91841 0.27343 -0.00583297
lowerneck -7.30677 -5.39322 -3.45053
upperneck -1.83778 -6.99512 5.12659
head 0.989278 -3.43093 1.97444
rclavicle 1.13307e-014 3.57812e-015
rhumerus 1.74836 29.4014 -71.2544
rradius 41.2588
rwrist 10.9845
rhand -28.3827 -36.6088
rfingers 7.12502
rthumb -1.7555 -66.5813
lclavicle 1.13307e-014 3.57812e-015
lhumerus 7.96098 -21.2425 78.144
lradius 37.653
lwrist -18.2075
lhand -23.646 -47.6756
lfingers 7.12502
lthumb 2.81927 -17.7145
rfemur -23.393 1.5787 13.1084
rtibia 10.4568
rfoot -19.3899 -15.5432
rtoes -5.18816
lfemur -34.6876 0.247967 -12.9771
ltibia 28.3743
lfoot -16.7106 8.57369
ltoes -55.9959
